<?xml version="1.0" encoding="UTF-8" standalone="no"?>
<svg
   width="512"
   height="512"
   viewBox="0 0 135.46667 135.46667"
   version="1.1"
   id="svg8"
   sodipodi:docname="planeBlack.svg"
   inkscape:version="1.1.1 (3bf5ae0d25, 2021-09-20, custom)"
   xmlns:inkscape="http://www.inkscape.org/namespaces/inkscape"
   xmlns:sodipodi="http://sodipodi.sourceforge.net/DTD/sodipodi-0.dtd"
   xmlns="http://www.w3.org/2000/svg"
   xmlns:svg="http://www.w3.org/2000/svg"
   xmlns:rdf="http://www.w3.org/1999/02/22-rdf-syntax-ns#"
   xmlns:cc="http://creativecommons.org/ns#"
   xmlns:dc="http://purl.org/dc/elements/1.1/">
  <defs
     id="defs2">
    <marker
       style="overflow:visible"
       id="Arrow1Lstart"
       refX="0.0"
       refY="0.0"
       orient="auto"
       inkscape:stockid="Arrow1Lstart"
       inkscape:isstock="true">
      <path
         transform="scale(0.8) translate(12.5,0)"
         style="fill-rule:evenodd;stroke:#000000;stroke-width:1pt;stroke-opacity:1;fill:#000000;fill-opacity:1"
         d="M 0.0,0.0 L 5.0,-5.0 L -12.5,0.0 L 5.0,5.0 L 0.0,0.0 z "
         id="path980" />
    </marker>
    <marker
       style="overflow:visible;"
       id="Arrow1Lend"
       refX="0.0"
       refY="0.0"
       orient="auto"
       inkscape:stockid="Arrow1Lend"
       inkscape:isstock="true">
      <path
         transform="scale(0.8) rotate(180) translate(12.5,0)"
         style="fill-rule:evenodd;stroke:#000000;stroke-width:1pt;stroke-opacity:1;fill:#000000;fill-opacity:1"
         d="M 0.0,0.0 L 5.0,-5.0 L -12.5,0.0 L 5.0,5.0 L 0.0,0.0 z "
         id="path983" />
    </marker>
    <marker
       style="overflow:visible"
       id="Arrow1Lstart-3"
       refX="0"
       refY="0"
       orient="auto"
       inkscape:stockid="Arrow1Lstart"
       inkscape:isstock="true">
      <path
         transform="matrix(0.8,0,0,0.8,10,0)"
         style="fill:#000000;fill-opacity:1;fill-rule:evenodd;stroke:#000000;stroke-width:1pt;stroke-opacity:1"
         d="M 0,0 5,-5 -12.5,0 5,5 Z"
         id="path980-2" />
    </marker>
  </defs>
  <sodipodi:namedview
     id="base"
     pagecolor="#ffffff"
     bordercolor="#666666"
     borderopacity="1.0"
     inkscape:pageopacity="0.0"
     inkscape:pageshadow="2"
     inkscape:zoom="1.4142136"
     inkscape:cx="258.44752"
     inkscape:cy="268.70057"
     inkscape:document-units="px"
     inkscape:current-layer="layer1"
     inkscape:document-rotation="0"
     showgrid="false"
     inkscape:window-width="1920"
     inkscape:window-height="1007"
     inkscape:window-x="0"
     inkscape:window-y="0"
     inkscape:window-maximized="1"
     units="px"
     inkscape:pagecheckerboard="1" />
  <metadata
     id="metadata5">
    <rdf:RDF>
      <cc:Work
         rdf:about="">
        <dc:format>image/svg+xml</dc:format>
        <dc:type
           rdf:resource="http://purl.org/dc/dcmitype/StillImage" />
      </cc:Work>
    </rdf:RDF>
  </metadata>
  <g
     inkscape:label="Layer 1"
     inkscape:groupmode="layer"
     id="layer1">
    <path
       d="M 0,0 0,135.46667 M 4.2333334,0 l 0,135.46667 M 8.4666669,0 l 0,135.46667 M 12.7,0 l 0,135.46667 M 16.933334,0 l 0,135.46667 M 21.166667,0 l 0,135.46667 M 25.400001,0 l 0,135.46667 M 29.633334,0 l 0,135.46667 M 33.866667,0 l 0,135.46667 M 38.100001,0 l 0,135.46667 M 42.333334,0 l 0,135.46667 M 46.566668,0 l 0,135.46667 M 50.800001,0 l 0,135.46667 M 55.033335,0 l 0,135.46667 M 59.266668,0 l 0,135.46667 M 63.500002,0 l 0,135.46667 M 67.733335,0 l 0,135.46667 M 71.966668,0 l 0,135.46667 M 76.200002,0 l 0,135.46667 M 80.433335,0 l 0,135.46667 M 84.666669,0 l 0,135.46667 M 88.900002,0 l 0,135.46667 M 93.133336,0 l 0,135.46667 M 97.366669,0 l 0,135.46667 M 101.6,0 l 0,135.46667 M 105.83334,0 l 0,135.46667 M 110.06667,0 l 0,135.46667 M 114.3,0 l 0,135.46667 M 118.53334,0 l 0,135.46667 M 122.76667,0 l 0,135.46667 M 127,0 127,135.46667 M 131.23334,0 l 0,135.46667 M 135.46667,0 l 0,135.46667 M 0,0 135.46667,0 M 0,4.2333334 l 135.46667,0 M 0,8.4666669 l 135.46667,0 M 0,12.7 l 135.46667,0 M 0,16.933334 l 135.46667,0 M 0,21.166667 l 135.46667,0 M 0,25.400001 l 135.46667,0 M 0,29.633334 l 135.46667,0 M 0,33.866667 l 135.46667,0 M 0,38.100001 l 135.46667,0 M 0,42.333334 l 135.46667,0 M 0,46.566668 l 135.46667,0 M 0,50.800001 l 135.46667,0 M 0,55.033335 l 135.46667,0 M 0,59.266668 l 135.46667,0 M 0,63.500002 l 135.46667,0 M 0,67.733335 l 135.46667,0 M 0,71.966668 l 135.46667,0 M 0,76.200002 l 135.46667,0 M 0,80.433335 l 135.46667,0 M 0,84.666669 l 135.46667,0 M 0,88.900002 l 135.46667,0 M 0,93.133336 l 135.46667,0 M 0,97.366669 l 135.46667,0 M 0,101.6 l 135.46667,0 M 0,105.83334 l 135.46667,0 M 0,110.06667 l 135.46667,0 M 0,114.3 l 135.46667,0 M 0,118.53334 l 135.46667,0 M 0,122.76667 l 135.46667,0 M 0,127 135.46667,127 M 0,131.23334 l 135.46667,0 M 0,135.46667 l 135.46667,0"
       style="fill:#000000;stroke:#000000;stroke-width:0.0529167px;stroke-opacity:1;fill-opacity:1"
       id="path976" />
    <path
       style="fill:#000000;stroke:#000000;stroke-width:0.36500001;stroke-linecap:butt;stroke-linejoin:miter;stroke-opacity:1;stroke-miterlimit:4;stroke-dasharray:none;marker-start:url(#Arrow1Lstart);fill-opacity:1"
       d="M 67.601043,0 V 135.46667"
       id="path978" />
    <path
       style="fill:#000000;stroke:#000000;stroke-width:0.36500001;stroke-linecap:butt;stroke-linejoin:miter;stroke-miterlimit:4;stroke-dasharray:none;stroke-opacity:1;marker-start:url(#Arrow1Lstart-3);fill-opacity:1"
       d="M 135.46667,67.733335 H 0"
       id="path978-4"
       sodipodi:nodetypes="cc" />
  </g>
</svg>
